<?xml version="1.0" standalone="no"?>
<!DOCTYPE svg PUBLIC "-//W3C//DTD SVG 20010904//EN"
 "http://www.w3.org/TR/2001/REC-SVG-20010904/DTD/svg10.dtd">
<svg version="1.0" xmlns="http://www.w3.org/2000/svg"
 width="425.000000pt" height="407.000000pt" viewBox="0 0 425.000000 407.000000"
 preserveAspectRatio="xMidYMid meet">
<metadata>
Created by potrace 1.16, written by Peter Selinger 2001-2019
</metadata>
<g transform="translate(0.000000,407.000000) scale(0.100000,-0.100000)"
fill="#000000" stroke="none">
<path d="M1530 3054 c-25 -10 -40 -26 -53 -54 -17 -40 -17 -41 8 -81 23 -36
62 -62 84 -56 10 2 24 -9 87 -72 22 -23 46 -41 52 -41 7 0 12 -7 12 -15 0 -8
10 -20 23 -26 12 -7 26 -18 30 -25 4 -8 14 -14 22 -14 9 0 12 -6 9 -15 -4 -8
-1 -15 5 -15 6 0 21 -11 33 -25 12 -14 29 -24 38 -23 9 2 56 -34 105 -79 l89
-83 -84 -83 c-89 -87 -140 -146 -140 -158 0 -18 19 -17 35 1 14 16 20 17 27 8
5 -9 8 -7 8 7 0 21 77 105 96 105 7 0 16 9 19 20 3 11 10 20 14 20 5 0 19 11
33 25 l25 25 119 -115 c74 -71 123 -110 128 -105 11 11 -1 24 -133 162 l-83
88 77 72 c42 40 91 78 107 84 17 6 36 18 42 26 6 8 19 17 29 21 9 3 17 13 17
22 0 8 6 15 13 15 7 0 18 9 25 20 7 11 19 20 27 20 8 0 15 5 15 11 0 18 48 59
53 46 3 -7 10 3 17 21 7 17 18 32 25 32 8 0 20 8 27 18 7 10 26 22 42 26 34 8
69 35 75 56 11 44 13 61 6 77 -5 10 -8 21 -7 25 3 14 -88 49 -110 42 -44 -13
-76 -45 -81 -80 -4 -26 -24 -53 -81 -109 -42 -41 -76 -77 -76 -80 0 -3 -24
-29 -52 -58 -29 -29 -59 -65 -66 -81 -14 -31 -19 -38 -103 -130 l-54 -58 -71
77 c-49 53 -79 96 -95 135 -13 32 -28 56 -34 54 -10 -4 -75 49 -75 61 0 3 -29
35 -66 72 -37 38 -63 72 -60 79 3 8 0 14 -7 14 -7 0 -19 16 -26 35 -13 37 -58
75 -88 74 -10 0 -34 -7 -53 -15z"/>
<path d="M1594 2457 c-4 -10 -1 -44 6 -75 14 -62 61 -134 128 -194 23 -21 42
-42 42 -47 0 -5 -28 -11 -61 -13 -57 -3 -63 -1 -85 25 -25 30 -30 26 -36 -23
-2 -14 -10 -25 -18 -26 -8 -1 -29 -2 -47 -2 -26 -2 -31 -6 -30 -23 1 -19 6
-21 47 -15 25 4 86 9 135 12 111 8 180 -13 255 -76 43 -36 86 -103 94 -145 1
-5 5 -15 8 -21 14 -22 26 -131 23 -207 -3 -65 0 -90 22 -148 26 -70 43 -88 43
-46 0 12 10 42 21 67 17 37 20 57 15 110 -6 57 4 139 27 236 9 36 47 104 58
104 6 0 8 4 5 9 -7 11 54 60 114 92 38 20 61 24 155 25 61 1 115 -2 120 -6 6
-4 24 -9 42 -12 25 -3 33 0 41 18 10 20 7 22 -41 28 -29 4 -58 8 -64 8 -15 2
-17 24 -3 33 6 3 10 10 10 15 0 13 -33 0 -46 -19 -10 -12 -13 -12 -22 5 -11
19 -11 18 -12 -1 0 -18 -6 -20 -55 -17 -30 2 -55 7 -55 10 0 4 27 30 59 57 33
28 60 54 60 59 1 5 12 23 25 40 13 17 26 41 30 53 12 37 16 123 6 123 -9 0
-24 -34 -29 -68 0 -5 -10 -19 -21 -32 -11 -13 -20 -29 -20 -36 0 -7 -22 -35
-50 -61 -57 -56 -53 -53 -150 -124 -120 -90 -155 -129 -208 -232 l-29 -59 -12
33 c-29 83 -113 182 -218 255 -122 84 -235 211 -248 276 -2 10 -8 26 -14 35
-9 17 -10 17 -17 0z"/>
<path d="M2540 831 c0 -73 -10 -89 -31 -48 -6 12 -27 41 -46 65 -28 34 -40 42
-68 42 -40 0 -51 -12 -30 -33 23 -23 22 -222 -1 -235 -27 -15 -6 -32 41 -32
47 0 68 17 41 32 -13 7 -16 24 -14 88 1 66 3 78 15 69 7 -7 12 -17 11 -23 -1
-6 17 -31 40 -55 23 -24 42 -53 42 -63 0 -11 4 -16 10 -13 5 3 15 -3 22 -15
34 -53 45 -4 40 178 -1 47 1 54 23 64 14 6 25 15 25 19 0 12 -47 22 -72 16
-12 -4 -28 -1 -35 5 -10 8 -13 -3 -13 -61z"/>
<path d="M2850 890 c0 -5 -9 -10 -20 -10 -11 0 -20 -7 -20 -15 0 -8 7 -15 15
-15 12 0 14 -18 12 -107 -2 -101 -3 -109 -24 -118 -13 -5 -23 -13 -23 -17 0
-12 43 -20 90 -16 46 3 64 22 30 31 -19 5 -20 13 -20 117 0 103 2 112 20 117
28 7 25 23 -4 23 -14 0 -28 5 -31 10 -3 6 -10 10 -16 10 -5 0 -9 -4 -9 -10z"/>
<path d="M1390 878 c-46 -5 -60 -12 -82 -39 -16 -18 -28 -42 -28 -52 0 -10 -5
-27 -10 -38 -7 -13 -7 -19 0 -19 5 0 10 -15 10 -33 0 -55 69 -107 144 -107 17
0 38 6 44 12 10 10 17 10 32 0 24 -15 27 -9 32 56 3 38 1 43 -17 40 -11 -2
-20 -9 -20 -17 0 -8 -12 -23 -27 -34 -23 -17 -34 -19 -65 -11 -50 12 -65 42
-59 118 5 70 28 99 77 99 24 0 39 -8 59 -31 15 -18 30 -32 34 -32 4 0 6 21 4
46 -3 46 -4 47 -38 48 -20 1 -60 -2 -90 -6z"/>
<path d="M1697 884 c-12 -12 -8 -24 9 -24 8 0 12 -4 9 -10 -3 -5 -2 -10 3 -10
5 0 7 -19 5 -42 -2 -24 -3 -65 -3 -91 1 -60 -7 -87 -27 -87 -8 0 -13 -6 -11
-12 3 -9 38 -14 116 -16 l112 -3 1 -37 c1 -28 4 -22 10 25 6 37 6 89 0 125 -8
60 -9 61 -10 18 0 -25 -8 -56 -17 -68 -13 -19 -23 -23 -62 -20 l-47 3 -3 114
c-2 101 -1 113 13 107 12 -4 16 -1 13 12 -2 13 -15 18 -53 20 -28 2 -54 0 -58
-4z"/>
<path d="M2080 869 c0 -11 4 -18 9 -15 15 10 20 -19 20 -118 0 -85 -2 -97 -20
-110 -32 -22 -14 -36 46 -36 59 0 78 14 49 35 -17 12 -19 26 -16 121 2 88 5
109 20 120 9 7 13 14 7 15 -5 0 -34 3 -62 5 -48 3 -53 2 -53 -17z"/>
<path d="M3168 879 c-2 -4 -10 -9 -18 -11 -23 -5 -62 -61 -56 -80 2 -10 0 -21
-6 -24 -5 -3 -7 -12 -4 -19 2 -7 -1 -18 -7 -24 -8 -8 -8 -11 1 -11 7 0 12 -10
12 -22 1 -30 17 -50 60 -77 38 -23 109 -28 128 -9 8 8 15 8 26 -1 24 -20 36
-4 36 50 0 55 -22 68 -41 25 -11 -24 -47 -46 -75 -46 -9 0 -29 9 -45 21 -27
19 -29 25 -29 89 0 58 3 72 22 90 20 19 42 25 78 21 8 -1 27 -15 41 -32 14
-16 29 -26 32 -22 12 11 8 81 -5 89 -8 5 -9 2 -5 -9 3 -10 2 -17 -2 -17 -5 0
-11 5 -13 11 -4 12 -126 19 -130 8z"/>
<path d="M962 844 c-1 -20 -6 -41 -11 -48 -6 -7 -5 -17 4 -29 12 -16 13 -16
18 3 6 25 27 27 27 2 0 -10 -12 -22 -29 -28 -26 -10 -28 -10 -23 10 4 20 3 20
-13 5 -9 -9 -18 -32 -20 -50 -1 -18 -7 -35 -14 -37 -6 -2 -11 -10 -11 -18 0
-8 -11 -20 -25 -26 -41 -18 -23 -33 38 -33 l57 1 0 -71 c0 -69 -8 -98 -26 -94
-36 7 -50 -29 -14 -38 18 -5 20 -14 20 -98 0 -108 17 -155 55 -155 13 0 27 -4
30 -10 6 -10 25 -9 60 4 43 16 64 29 59 37 -2 4 0 10 6 14 5 3 10 46 10 95 0
76 3 92 19 107 35 33 13 43 -100 46 l-104 2 -2 90 c-1 50 -3 101 -4 115 -2 24
-2 24 -6 3 -4 -21 -22 -30 -35 -17 -3 3 -3 17 1 32 6 23 13 27 46 29 21 1 45
-3 52 -9 17 -14 17 -47 -1 -54 -8 -3 -12 -12 -9 -20 3 -10 22 -14 58 -14 60 0
78 15 49 39 -17 14 -46 69 -50 96 -1 6 -14 36 -28 67 -14 32 -25 63 -24 70 2
8 -9 14 -28 16 -29 3 -31 1 -32 -34z m124 -436 c8 -7 20 -18 28 -24 18 -16 16
-175 -3 -197 -20 -25 -87 -23 -101 2 -5 11 -10 60 -10 110 0 71 3 91 14 91 8
0 16 7 20 15 7 18 32 19 52 3z"/>
<path d="M1911 467 l-1 -37 -97 2 c-83 1 -98 -1 -101 -15 -2 -8 6 -21 17 -27
19 -10 21 -20 21 -98 0 -50 5 -100 13 -115 16 -34 91 -65 118 -48 10 6 26 11
34 11 9 0 25 16 37 36 17 29 20 50 19 119 -2 76 0 85 19 95 35 19 21 45 -25
46 -37 1 -40 3 -46 35 l-6 34 -2 -38z m-18 -62 c15 -6 17 -22 17 -121 l0 -114
-39 0 c-43 0 -56 11 -66 58 -10 47 4 162 20 162 7 0 15 6 18 14 6 15 18 15 50
1z"/>
<path d="M695 430 c-3 -5 -19 -7 -36 -5 -48 6 -148 -43 -134 -66 3 -4 -1 -14
-9 -22 -8 -8 -12 -17 -9 -21 3 -3 0 -12 -7 -21 -14 -17 -8 -54 17 -102 22 -42
125 -86 144 -61 7 11 50 12 72 3 15 -6 17 -1 17 44 0 57 -21 71 -42 26 -11
-25 -18 -29 -50 -26 -10 1 -18 -2 -18 -7 0 -20 -42 2 -59 29 -10 16 -20 27
-22 24 -3 -2 -2 19 2 48 7 58 27 104 48 112 28 11 82 -7 99 -34 9 -14 18 -28
20 -31 8 -11 22 28 22 63 0 20 5 37 10 37 6 0 10 3 10 8 0 10 -69 12 -75 2z"/>
<path d="M1351 430 c-17 -10 -7 -40 14 -40 13 0 15 -18 15 -111 0 -102 -2
-111 -20 -116 -11 -3 -20 -9 -20 -14 0 -15 24 -23 78 -23 42 -1 56 3 63 17 8
14 5 17 -15 17 -28 0 -41 27 -34 71 2 19 10 24 33 26 17 0 35 2 42 2 6 1 24
12 40 25 26 22 30 38 24 98 -1 4 -13 14 -28 22 -23 12 -24 15 -9 16 11 0 17 3
13 6 -10 10 -181 14 -196 4z"/>
<path d="M2153 424 c-6 -17 5 -34 23 -34 11 0 14 -21 14 -110 0 -98 -2 -110
-20 -120 -34 -18 -14 -39 33 -33 52 5 65 17 43 38 -11 12 -16 35 -16 81 0 35
4 64 9 64 4 0 34 -33 65 -72 86 -110 86 -110 99 -105 8 2 13 43 15 130 2 99 6
127 16 127 8 0 16 7 20 15 3 8 13 15 23 15 15 1 16 2 3 9 -12 7 -144 9 -158 2
-1 0 12 -13 28 -28 30 -27 31 -31 28 -95 l-3 -68 -42 55 c-24 30 -43 57 -43
60 0 3 -10 16 -22 31 -13 14 -23 31 -23 37 0 17 -85 18 -92 1z"/>
<path d="M2552 429 c-13 -5 -12 -7 8 -10 21 -3 26 -11 30 -44 l5 -40 24 28
c16 17 35 27 53 27 l28 0 0 -115 c0 -108 -1 -115 -20 -115 -23 0 -26 -13 -6
-29 9 -8 21 -8 40 -1 18 7 34 6 52 -2 21 -10 27 -9 35 3 13 21 11 26 -11 32
-18 5 -20 14 -20 117 l0 111 32 -3 c26 -2 36 -10 49 -37 14 -29 17 -31 23 -15
5 11 9 37 10 59 l1 41 -158 -1 c-87 0 -165 -3 -175 -6z"/>
<path d="M3000 429 c0 -3 11 -16 25 -29 23 -21 25 -31 25 -107 0 -101 13 -132
68 -156 38 -17 41 -17 85 2 53 23 67 44 67 103 0 81 12 148 26 148 8 0 14 7
14 15 0 9 10 16 28 17 15 0 5 4 -23 7 -64 8 -115 2 -115 -13 0 -6 9 -20 21
-30 19 -16 21 -26 17 -101 -2 -64 -7 -89 -21 -102 -15 -16 -19 -16 -27 -3 -7
10 -10 11 -10 3 0 -21 -48 -15 -60 6 -5 11 -10 60 -10 110 0 71 3 91 14 91 11
0 26 20 26 35 0 2 -34 5 -75 7 -41 2 -75 0 -75 -3z"/>
<path d="M3448 434 c-4 -3 6 -20 22 -36 19 -18 27 -35 23 -45 -4 -10 -2 -14 4
-10 8 5 8 -5 2 -31 -4 -21 -8 -60 -7 -87 0 -38 -4 -52 -20 -66 -30 -24 -11
-35 58 -34 60 0 80 21 38 40 -18 8 -23 18 -23 45 0 19 5 35 11 35 6 0 33 -27
61 -60 41 -49 55 -60 80 -60 42 0 62 22 31 34 -13 5 -34 22 -49 37 -53 60 -52
59 -19 93 37 37 36 68 -4 109 -24 26 -34 29 -89 29 -34 0 -73 4 -87 7 -14 4
-29 4 -32 0z"/>
<path d="M202 424 c4 -3 0 -17 -8 -32 -8 -16 -10 -30 -4 -37 6 -7 5 -16 -2
-23 -9 -9 -7 -12 9 -12 22 0 40 -31 28 -50 -10 -16 -35 -11 -36 8 0 14 -2 14
-9 -3 -6 -14 -9 -15 -10 -5 0 12 -3 12 -14 -2 -7 -10 -19 -18 -27 -18 -10 -1
-9 -4 3 -11 9 -5 15 -16 12 -24 -4 -8 -10 -13 -15 -10 -4 3 -15 -8 -24 -25 -8
-16 -20 -30 -26 -30 -6 0 -9 -5 -7 -11 5 -16 86 -18 92 -2 3 7 1 15 -5 19 -6
3 -8 13 -4 21 4 13 3 13 -9 4 -11 -9 -15 -8 -20 4 -3 9 -2 13 4 10 5 -3 15 3
22 15 16 26 92 29 102 4 10 -25 7 -64 -5 -64 -5 0 -8 -4 -5 -9 3 -5 21 -9 38
-9 18 0 42 -3 53 -5 11 -2 23 1 27 7 11 16 10 28 -2 21 -5 -3 -10 -1 -10 5 0
6 -4 8 -10 5 -5 -3 -7 0 -4 8 3 8 0 18 -5 22 -12 7 -45 75 -43 88 1 4 -3 7 -9
7 -5 0 -8 4 -5 9 4 5 1 11 -5 13 -6 2 -12 19 -14 38 -2 19 -8 36 -14 38 -6 2
-8 8 -5 14 4 6 0 14 -7 19 -16 10 -36 12 -27 3z"/>
<path d="M3971 402 c-7 -13 -6 -23 1 -30 14 -14 20 -44 7 -36 -5 3 -7 10 -4
15 3 5 -2 6 -11 2 -16 -6 -16 -7 1 -19 10 -7 21 -15 25 -16 4 -2 11 -13 14
-25 6 -19 4 -23 -13 -23 -12 0 -21 5 -21 12 0 6 -7 3 -15 -8 -10 -13 -14 -15
-15 -5 0 9 -7 6 -20 -9 -21 -25 -26 -35 -11 -25 5 3 12 1 15 -4 4 -5 2 -12 -4
-16 -6 -4 -7 -11 -4 -17 5 -7 1 -9 -9 -5 -11 4 -17 1 -17 -8 0 -8 -12 -18 -26
-21 -25 -6 -25 -7 -7 -25 15 -16 24 -17 56 -8 42 11 48 24 15 32 -18 5 -19 8
-8 21 7 9 9 16 6 16 -4 0 0 7 8 16 10 10 29 14 53 12 31 -2 39 -8 48 -31 8
-24 6 -30 -8 -39 -30 -16 -3 -33 55 -33 42 0 53 3 56 18 2 9 -3 17 -10 17 -16
0 -64 87 -54 97 3 4 -3 12 -14 20 -17 12 -38 74 -32 96 1 4 -2 7 -7 7 -5 0
-11 9 -14 20 -6 25 -23 26 -36 2z"/>
</g>
</svg>
