<?xml version="1.0" standalone="no"?>
<!DOCTYPE svg PUBLIC "-//W3C//DTD SVG 20010904//EN"
 "http://www.w3.org/TR/2001/REC-SVG-20010904/DTD/svg10.dtd">
<svg version="1.0" xmlns="http://www.w3.org/2000/svg"
 width="284.000000pt" height="311.000000pt" viewBox="0 0 284.000000 311.000000"
 preserveAspectRatio="xMidYMid meet">
<metadata>
Created by potrace 1.16, written by Peter Selinger 2001-2019
</metadata>
<g transform="translate(0.000000,311.000000) scale(0.100000,-0.100000)"
fill="#000000" stroke="none">
<path d="M904 1491 c-46 -21 -69 -63 -67 -123 3 -76 65 -118 148 -101 36 8 40
12 40 38 0 23 -5 31 -21 33 -15 2 -23 -3 -27 -17 -7 -29 -41 -26 -55 4 -35 76
11 178 50 115 7 -11 22 -20 34 -20 17 0 23 7 26 35 2 19 2 39 -1 43 -11 15
-87 11 -127 -7z"/>
<path d="M1880 1484 c0 -13 5 -24 10 -24 6 0 10 -33 10 -80 0 -47 -4 -80 -10
-80 -5 0 -10 -7 -10 -15 0 -12 13 -15 55 -15 42 0 55 3 55 15 0 8 -4 15 -10
15 -6 0 -10 33 -10 80 0 47 4 80 10 80 6 0 10 10 10 23 0 20 -5 22 -55 23 -52
2 -55 1 -55 -22z"/>
<path d="M589 1403 c-17 -54 -36 -99 -40 -101 -5 -2 -9 -10 -9 -18 0 -14 17
-19 53 -16 10 1 15 -3 12 -8 -3 -6 -2 -10 4 -10 5 0 13 5 16 10 3 6 37 10 76
10 68 0 85 10 60 36 -5 5 -19 38 -31 74 -38 119 -39 120 -75 120 -33 0 -33 0
-66 -97z"/>
<path d="M1110 1480 c0 -11 5 -20 10 -20 6 0 10 -33 10 -80 0 -47 -4 -80 -10
-80 -5 0 -10 -7 -10 -15 0 -12 17 -15 90 -15 l90 0 2 30 c0 17 1 36 2 43 1 6
-9 13 -21 15 -17 2 -23 -3 -28 -27 -5 -22 -13 -31 -26 -31 -17 0 -19 8 -19 80
0 47 4 80 10 80 6 0 10 9 10 20 0 18 -7 20 -55 20 -48 0 -55 -2 -55 -20z"/>
<path d="M1370 1480 c0 -11 5 -20 10 -20 6 0 10 -33 10 -80 0 -47 -4 -80 -10
-80 -5 0 -10 -7 -10 -15 0 -11 13 -15 54 -15 54 0 82 14 52 26 -24 9 -23 152
1 169 27 20 5 35 -53 35 -47 0 -54 -2 -54 -20z"/>
<path d="M1570 1480 c0 -11 5 -20 10 -20 6 0 10 -33 10 -79 0 -73 -2 -79 -22
-86 -14 -4 -18 -8 -10 -12 6 -2 9 -10 5 -16 -4 -7 0 -8 11 -4 10 4 33 7 52 7
24 0 34 5 34 15 0 8 -4 15 -10 15 -11 0 -24 59 -18 87 2 13 15 -1 47 -49 37
-58 48 -68 72 -68 l29 0 0 91 c0 74 3 94 17 104 25 19 6 35 -43 35 -46 0 -61
-20 -28 -38 11 -6 14 -20 12 -48 l-3 -39 -40 63 c-39 60 -41 62 -82 62 -36 0
-43 -3 -43 -20z"/>
<path d="M2123 1480 c-70 -42 -64 -167 10 -203 51 -26 114 -16 128 20 5 13 7
29 3 34 -10 17 -43 9 -49 -11 -8 -26 -41 -26 -55 -1 -14 27 -13 114 2 129 19
19 48 15 48 -8 0 -14 7 -20 24 -20 19 0 26 7 31 30 4 16 4 34 0 40 -11 18
-107 12 -142 -10z"/>
<path d="M1440 1209 c0 -6 -7 -9 -15 -5 -19 7 -19 -4 1 -33 19 -26 21 -145 3
-167 -17 -21 -1 -34 41 -34 44 0 61 17 36 36 -13 9 -16 23 -14 54 l3 43 45
-67 c38 -56 49 -66 70 -64 25 3 25 5 28 101 1 53 7 97 12 97 6 0 10 6 10 14 0
20 -80 27 -88 8 -3 -8 1 -17 7 -22 7 -4 11 -23 9 -46 l-3 -39 -40 67 c-37 62
-65 86 -65 56 0 -9 -3 -9 -12 0 -15 15 -28 15 -28 1z"/>
<path d="M2380 1211 c0 -5 -10 -6 -23 -4 -14 3 -29 -2 -37 -12 -12 -14 -11
-21 3 -45 22 -37 23 -135 2 -144 -8 -3 -12 -12 -9 -21 8 -21 114 -22 114 -1 0
8 -4 18 -10 21 -12 7 -14 55 -2 55 5 0 17 -19 28 -42 15 -34 25 -44 48 -46 45
-5 51 11 21 58 -23 36 -25 46 -15 65 20 38 9 86 -25 105 -31 17 -95 25 -95 11z"/>
<path d="M395 1201 c-62 -8 -73 -15 -91 -57 -29 -69 -8 -142 48 -165 24 -10
113 -8 122 2 2 2 6 16 10 30 9 40 -21 47 -52 14 -23 -25 -25 -25 -43 -9 -14
13 -19 31 -19 74 0 55 11 80 37 80 8 0 18 -11 23 -25 5 -14 16 -25 25 -25 8 0
18 0 23 0 4 0 7 3 8 8 0 4 4 15 8 24 10 22 -10 58 -32 57 -9 -1 -39 -5 -67 -8z"/>
<path d="M550 1194 c0 -6 7 -17 15 -24 11 -9 15 -32 15 -82 0 -60 3 -72 25
-93 33 -34 93 -34 132 -1 25 21 28 31 31 100 2 42 8 76 13 76 5 0 9 7 9 15 0
11 -12 15 -50 15 -36 0 -50 -4 -50 -14 0 -8 7 -16 15 -20 24 -9 21 -117 -4
-147 -17 -21 -21 -22 -34 -9 -8 8 -17 45 -20 83 -5 54 -3 69 8 74 18 6 20 33
3 34 -7 0 -34 1 -60 2 -31 2 -48 -1 -48 -9z"/>
<path d="M45 1113 c-15 -49 -31 -92 -36 -97 -5 -6 -9 -20 -9 -31 0 -19 5 -21
51 -19 62 3 71 10 40 35 -13 10 -22 19 -20 20 50 11 56 9 51 -19 -5 -35 11
-43 63 -35 42 7 54 25 31 49 -9 8 -13 20 -10 26 4 6 2 13 -3 17 -6 3 -20 36
-32 74 -23 67 -23 67 -60 67 l-37 0 -29 -87z"/>
<path d="M860 1186 c0 -8 5 -18 10 -21 6 -3 10 -39 10 -80 0 -41 -4 -77 -10
-80 -5 -3 -10 -13 -10 -21 0 -11 14 -14 60 -14 47 0 60 3 60 15 0 9 -7 18 -15
21 -25 10 -18 44 9 44 13 0 35 9 50 21 21 16 26 29 26 63 0 23 -5 47 -12 54
-7 7 -44 12 -95 12 -66 0 -83 -3 -83 -14z"/>
<path d="M1120 1185 c0 -8 5 -15 10 -15 6 0 10 -28 10 -65 0 -75 13 -108 47
-124 71 -32 142 5 144 76 2 48 6 81 15 116 6 27 6 27 -40 27 -34 0 -46 -4 -46
-15 0 -8 5 -15 10 -15 15 0 13 -143 -2 -158 -16 -16 -23 -15 -42 4 -23 22 -23
149 0 158 30 12 2 26 -52 26 -41 0 -54 -4 -54 -15z"/>
<path d="M1732 1153 c4 -58 23 -67 43 -19 9 20 17 36 20 36 3 0 5 -35 5 -79 0
-72 -2 -79 -21 -84 -12 -3 -19 -12 -17 -19 3 -9 25 -13 73 -13 48 0 70 4 73
13 2 7 -5 16 -17 19 -19 5 -21 13 -21 79 0 75 16 108 26 55 4 -16 12 -32 20
-35 20 -8 35 27 28 63 l-6 31 -105 0 -104 0 3 -47z"/>
<path d="M2017 1193 c-4 -3 -3 -11 2 -17 4 -6 11 -45 14 -86 5 -64 10 -78 32
-97 34 -30 93 -31 128 -3 26 21 29 32 41 158 l5 52 -44 0 c-32 0 -45 -4 -45
-14 0 -8 7 -17 16 -20 13 -5 14 -18 9 -73 -6 -78 -21 -101 -49 -80 -26 19 -36
144 -12 153 9 3 16 12 16 20 0 10 -14 14 -53 14 -30 0 -57 -3 -60 -7z"/>
<path d="M2668 1193 c-3 -4 -17 -47 -33 -95 -16 -49 -32 -88 -37 -88 -4 0 -8
-9 -8 -21 0 -18 5 -20 48 -17 47 3 50 7 37 41 -6 14 -2 17 24 17 32 0 39 -8
20 -27 -20 -20 1 -33 52 -33 41 0 49 3 49 18 0 10 -4 22 -9 28 -6 5 -23 47
-38 94 -28 85 -28 85 -65 88 -20 2 -38 -1 -40 -5z"/>
</g>
</svg>
